<?xml version="1.0" encoding="UTF-8"?>
<svg width="137px" height="42px" viewBox="0 0 137 42" version="1.1" xmlns="http://www.w3.org/2000/svg" xmlns:xlink="http://www.w3.org/1999/xlink">
    <title>CodeAcademy</title>
    <defs>
        <polygon id="path-1" points="0.413262835 0.264422492 11.198355 0.264422492 11.198355 15.535498 0.413262835 15.535498"></polygon>
        <polygon id="path-3" points="0.058256231 0.0762452888 10.8021793 0.0762452888 10.8021793 14.5744681 0.058256231 14.5744681"></polygon>
        <polygon id="path-5" points="8.32826748e-05 0.264422492 37.1599799 0.264422492 37.1599799 40.3898902 8.32826748e-05 40.3898902"></polygon>
    </defs>
    <g id="Titulinis" stroke="none" stroke-width="1" fill="none" fill-rule="evenodd">
        <g id="Menu" transform="translate(-135.000000, -19.000000)">
            <g id="Group-34" transform="translate(135.000000, 19.639939)">
                <path d="M53.6445362,15.6877076 C57.3930894,15.6877076 59.8586729,13.4228353 60.2800833,9.63388997 L56.9720954,9.63388997 C56.7264116,11.2300024 55.7948948,12.7349204 54.0721927,12.9368809 C52.5935088,13.1105252 51.2955483,12.3659781 50.6617672,11.0288748 C50.2928249,10.2505982 50.145831,9.3794614 50.1066881,8.52498116 C50.0650468,7.60262553 50.1325058,6.65403587 50.4081714,5.76874103 C50.8404085,4.37875319 51.8681167,3.29399635 53.3742839,3.18864377 C54.2325119,3.12868024 55.0907398,3.3702 55.7374298,3.95068024 C56.4544936,4.59403891 56.8259343,5.53263465 56.9720954,6.46664985 L60.2800833,6.46664985 C60.0310681,4.24008754 58.9292383,2.14053131 56.8542505,1.13364377 C54.8729556,0.172561702 52.2591289,0.211704559 50.2665909,1.1253155 C48.3277702,2.01352523 47.1393264,3.8249234 46.7183325,5.87534286 C46.2631927,8.0935769 46.4372535,10.6965769 47.6315271,12.6678778 C48.7333568,14.4876043 50.6650985,15.4586802 52.7442505,15.6477319 C53.0440681,15.6752152 53.3443021,15.6877076 53.6445362,15.6877076" id="Fill-1" fill="#000000"></path>
                <path d="M66.7481073,13.0617216 C65.6962471,13.0617216 64.9741863,12.3554845 64.7443261,11.3598401 C64.5152988,10.3679435 64.5869219,9.03417143 65.3477091,8.27171854 C65.9952319,7.6229465 67.1466149,7.54424438 67.8969918,8.06142979 C68.7897821,8.67647234 68.936776,9.94736596 68.8235116,10.9388462 C68.6910921,12.096059 67.9923505,13.0617216 66.7481073,13.0617216 M66.7481073,5.12363343 C65.5809006,5.12363343 64.3787152,5.35099514 63.3834872,5.98894043 C62.4931954,6.55984316 61.8589979,7.43181277 61.538776,8.435369 C60.8754295,10.516603 61.264776,13.2153781 63.077007,14.6057824 C63.9889523,15.3057733 65.1365875,15.6118371 66.2708976,15.6747155 C67.4530951,15.7405088 68.6927578,15.5860195 69.7521134,15.0280255 C71.8445906,13.9253629 72.4941954,11.4427064 72.1294173,9.2357155 C71.9566058,8.18843587 71.5010495,7.1898766 70.7156939,6.46115319 C69.8970252,5.70119878 68.8143505,5.31060304 67.7183505,5.17943283 C67.3968793,5.1411228 67.0720769,5.12363343 66.7481073,5.12363343" id="Fill-3" fill="#000000"></path>
                <g id="Group-7" transform="translate(72.872340, 0.152116)">
                    <mask id="mask-2" fill="white">
                        <use xlink:href="#path-1"></use>
                    </mask>
                    <g id="Clip-6"></g>
                    <path d="M5.92697812,12.9096058 C4.93466505,12.9096058 4.2138535,12.2770739 3.95609362,11.3384781 C3.68875623,10.3657365 3.73914225,9.05028663 4.4133155,8.24286109 C5.00378967,7.53662401 6.11977751,7.36631094 6.90638237,7.84102219 C7.8320693,8.40026535 8.08649787,9.62618632 7.99447052,10.6284933 C7.88911793,11.776545 7.19495684,12.9096058 5.92697812,12.9096058 L5.92697812,12.9096058 Z M7.87121216,8.76046292 L7.83082006,8.76046292 C7.83082006,7.85934438 7.6421848,6.91783374 7.08460729,6.18869392 C6.58782614,5.53867264 5.84494468,5.15723799 5.04584742,5.02856626 C4.22384742,4.89614681 3.34396596,4.97651459 2.59983526,5.36711033 C1.91067112,5.72855714 1.39182006,6.33235653 1.05202675,7.02443556 C0.619373252,7.90431702 0.454473556,8.89912857 0.42032766,9.87103739 C0.384932523,10.8995784 0.476959878,11.958934 0.823415805,12.9341742 C1.08908754,13.6795541 1.52049179,14.379545 2.1588535,14.8605024 C2.79638237,15.3406271 3.58298723,15.5459188 4.37417264,15.5350921 C5.31026991,15.5221833 6.25136413,15.2294447 6.90180182,14.5282046 C7.59346444,13.7824082 7.83082006,12.7392927 7.83082006,11.7469796 L7.87121216,11.7469796 L7.87121216,15.3352137 L11.198355,15.3352137 L11.198355,0.264380851 L7.87121216,0.264380851 L7.87121216,8.76046292 Z" id="Fill-5" fill="#000000" mask="url(#mask-2)"></path>
                </g>
                <path d="M88.8395863,9.79445897 C88.9499359,8.69387842 89.5449906,7.60703951 90.7729936,7.58996657 C92.023483,7.5724772 92.5831426,8.69762614 92.708483,9.79445897 L88.8395863,9.79445897 Z M90.804641,5.12355015 C89.2838994,5.12355015 87.7194343,5.5766079 86.7192094,6.78420669 C85.7077413,8.00554711 85.4691365,9.71658967 85.6377839,11.2502401 C85.8006015,12.7368359 86.481021,14.1463951 87.7898082,14.940079 C89.1735498,15.7787356 91.0245073,15.8770091 92.5623219,15.4751702 C94.347486,15.0087872 95.647945,13.6550274 95.9356866,11.8190608 L92.7284708,11.8190608 C92.4565529,12.882997 91.2997565,13.4176717 90.2707991,13.1332614 C89.2310149,12.8463526 88.8699845,11.7241185 88.8195985,10.7563739 L95.9356866,10.7563739 L95.9356866,10.3957599 C95.9356866,7.06820061 94.0318447,5.12355015 90.804641,5.12355015 L90.804641,5.12355015 Z" id="Fill-8" fill="#000000"></path>
                <path d="M50.8984149,30.1149736 L53.0833359,21.6559523 L53.123728,21.6559523 L55.3082325,30.1149736 L50.8984149,30.1149736 Z M50.1567827,21.3752897 L45.8469043,36.2087669 L49.3147948,36.2087669 L50.2167462,32.7608641 L55.9903176,32.7608641 L56.8718647,36.2087669 L60.5404666,36.2087669 L56.2705638,21.3752897 L50.1567827,21.3752897 Z" id="Fill-10" fill="#000000"></path>
                <path d="M66.2686906,33.7833672 C64.6950644,33.7833672 64.1562255,32.2667897 64.2082772,30.9163611 C64.2340948,30.2330267 64.401493,29.4943094 64.8949429,28.9908657 C65.3446693,28.5332274 66.0167605,28.3749903 66.6388821,28.4820085 C67.4746237,28.6260875 67.9955568,29.3060906 68.1929368,30.0951939 L71.4609489,30.0951939 C71.3272802,29.0458322 70.9216936,28.0256195 70.1721495,27.2644158 C69.4405112,26.5211179 68.45611,26.0992912 67.4371465,25.9348079 C65.3913076,25.6050085 62.9711131,26.0776377 61.7218729,27.8702973 C61.1330644,28.7156164 60.8711404,29.7412426 60.8245021,30.7606225 C60.7761982,31.8183125 60.9265234,32.9143125 61.4141435,33.8649842 C62.4085386,35.8067198 64.5838821,36.497966 66.6463775,36.4005252 C67.8364869,36.3443094 69.0395052,35.9978535 69.9506176,35.2020875 C70.8492377,34.4163155 71.33311,33.2886681 71.4809368,32.1197957 L68.2129246,32.1197957 C67.9526663,33.1820663 67.2709976,33.7833672 66.2686906,33.7833672" id="Fill-12" fill="#000000"></path>
                <path d="M77.9388419,33.7833672 C76.9469453,33.7833672 76.2257173,33.1508353 75.9679574,32.2122395 C75.7006201,31.2394979 75.7510061,29.924048 76.4255957,29.1166225 C77.0160699,28.4103854 78.1316413,28.2400723 78.9182462,28.7147836 C79.8443495,29.2740267 80.0983617,30.4999477 80.0063343,31.5022547 C79.9009818,32.6503064 79.2068207,33.7833672 77.9388419,33.7833672 L77.9388419,33.7833672 Z M79.883076,29.6342243 L79.8431003,29.6342243 C79.8431003,28.7331058 79.654465,27.7915951 79.0968875,27.0624553 C78.59969,26.412434 77.8568085,26.0309994 77.0577112,25.9023277 C76.2361277,25.7699082 75.3558298,25.850276 74.6116991,26.2408717 C73.9229514,26.6023185 73.4041003,27.2061179 73.0638906,27.898197 C72.6312371,28.7780784 72.4667538,29.77289 72.4326079,30.7447988 C72.3972128,31.7733398 72.4888237,32.8326954 72.835696,33.8079356 C73.1009514,34.5533155 73.5323556,35.2537228 74.1711337,35.7342638 C74.8086626,36.2143884 75.5948511,36.4196802 76.3860365,36.4088535 C77.3221337,36.3959447 78.2636444,36.1032061 78.9136657,35.401966 C79.6053283,34.6561696 79.8431003,33.6130541 79.8431003,32.620741 L79.883076,32.620741 L79.883076,36.2089751 L83.2106353,36.2089751 L83.2106353,26.0459903 L79.883076,26.0459903 L79.883076,29.6342243 Z" id="Fill-14" fill="#000000"></path>
                <path d="M90.3165629,33.7833672 C89.3246663,33.7833672 88.6034383,33.1508353 88.3460948,32.2122395 C88.078341,31.2394979 88.1287271,29.924048 88.8033167,29.1166225 C89.3937909,28.4103854 90.5093623,28.2400723 91.2963836,28.7147836 C92.2220705,29.2740267 92.4764991,30.4999477 92.3840553,31.5022547 C92.2787027,32.6503064 91.5845416,33.7833672 90.3165629,33.7833672 L90.3165629,33.7833672 Z M92.260797,29.6342243 L92.2208213,29.6342243 C92.2208213,28.7331058 92.032186,27.7915951 91.4746085,27.0624553 C90.9774109,26.412434 90.2345295,26.0309994 89.4354322,25.9023277 C88.6138486,25.7699082 87.7335508,25.850276 86.9894201,26.2408717 C86.3006723,26.6023185 85.7818213,27.2061179 85.4416116,27.898197 C85.0089581,28.7780784 84.8444748,29.77289 84.8103289,30.7447988 C84.7749337,31.7733398 84.8665447,32.8326954 85.213417,33.8079356 C85.4786723,34.5533155 85.9100766,35.2537228 86.5488547,35.7342638 C87.1863836,36.2143884 87.972572,36.4196802 88.7637574,36.4088535 C89.7002711,36.3959447 90.6413653,36.1032061 91.2913866,35.401966 C91.9830492,34.6561696 92.2208213,33.6130541 92.2208213,32.620741 L92.260797,32.620741 L92.260797,36.2089751 L95.5883562,36.2089751 L95.5883562,21.3750815 L92.260797,21.3750815 L92.260797,29.6342243 Z" id="Fill-16" fill="#000000"></path>
                <path d="M100.357247,30.5161462 C100.46718,29.4155657 101.062235,28.3287267 102.290238,28.3116538 C103.540727,28.2941644 104.100803,29.4193134 104.226144,30.5161462 L100.357247,30.5161462 Z M102.321885,25.8452374 C100.801144,25.8452374 99.2366787,26.2982951 98.2368702,27.5054775 C97.2249857,28.7272343 96.9867973,30.4382769 97.1550283,31.9719274 C97.3182623,33.4585231 97.9986818,34.8680824 99.307469,35.6617663 C100.690794,36.5004228 102.542168,36.5986964 104.079566,36.1968574 C105.86473,35.7304745 107.165189,34.3767146 107.453347,32.540748 L104.246132,32.540748 C103.973797,33.6046842 102.817834,34.139359 101.788043,33.8549486 C100.748259,33.5680398 100.387645,32.4458058 100.337259,31.4780611 L107.453347,31.4780611 L107.453347,31.1174471 C107.453347,27.7898878 105.549089,25.8452374 102.321885,25.8452374 L102.321885,25.8452374 Z" id="Fill-18" fill="#000000"></path>
                <path d="M121.883861,25.8453207 C119.959615,25.8453207 118.836965,27.2686216 118.836965,29.6542538 L118.796989,29.6542538 C118.796989,28.1863967 118.253153,26.6140198 116.771971,26.0593571 C115.455272,25.5659073 113.808357,25.8848799 112.991354,27.0841505 C112.482497,27.8307796 112.322178,28.7660441 112.322178,29.6542538 L112.281785,29.6542538 L112.281785,26.0460319 L108.954643,26.0460319 L108.954643,36.2090167 L112.281785,36.2090167 L112.281785,30.6561444 C112.281785,29.7146337 112.632405,28.6261292 113.695092,28.4703906 C114.139405,28.4054301 114.632022,28.4912112 114.973481,28.7993571 C115.349919,29.1395669 115.46943,29.6663298 115.46943,30.1551991 L115.46943,36.2090167 L118.796989,36.2090167 L118.796989,30.6561444 C118.796989,29.7146337 119.147193,28.6261292 120.209463,28.4703906 C120.652111,28.4058465 121.142646,28.4895456 121.47994,28.7993571 C121.851798,29.1412325 121.963813,29.6692447 121.963813,30.1551991 L121.963813,36.2090167 L125.291788,36.2090167 L125.291788,29.9948799 C125.291788,27.388965 124.02839,25.8453207 121.883861,25.8453207" id="Fill-20" fill="#000000"></path>
                <g id="Group-24" transform="translate(126.173252, 25.969745)">
                    <mask id="mask-4" fill="white">
                        <use xlink:href="#path-3"></use>
                    </mask>
                    <g id="Clip-23"></g>
                    <polygon id="Fill-22" fill="#000000" mask="url(#mask-4)" points="7.25429574 0.0762452888 5.4499766 10.0189474 5.41000091 10.0189474 3.60609818 0.0762452888 0.058256231 0.0762452888 2.32312857 10.2392301 5.02898267 10.2392301 4.07456322 14.5745097 7.62282158 14.5745097 10.8025541 0.0762452888"></polygon>
                </g>
                <g id="Group-27" transform="translate(0.000000, 0.152116)">
                    <mask id="mask-6" fill="white">
                        <use xlink:href="#path-5"></use>
                    </mask>
                    <g id="Clip-26"></g>
                    <path d="M35.513065,21.8120657 C35.513065,25.3078559 34.4124845,28.7565915 32.3866334,31.6052754 C30.4111684,34.3827526 27.6028766,36.5381082 24.401907,37.7140596 C21.0722657,38.9370657 17.3720164,39.0736492 13.9595088,38.1046553 C10.6702596,37.1702237 7.70456353,35.2209927 5.52672158,32.5867617 C3.31806505,29.9154699 1.96513799,26.5866614 1.69780061,23.130014 C1.66365471,22.6915307 1.64699818,22.2517982 1.64699818,21.8120657 L1.64699818,1.9112541 L35.513065,1.9112541 L35.513065,21.8120657 Z M8.32826748e-05,0.26433921 L8.32826748e-05,21.8120657 C8.32826748e-05,25.6605581 1.21517751,29.4569988 3.45256657,32.5888438 C5.620831,35.623248 8.69562736,37.9780657 12.1984967,39.2627009 C15.8429465,40.5998043 19.8909009,40.7513787 23.6269617,39.6957708 C27.2497581,38.6718103 30.5161046,36.5256158 32.9117307,33.6240474 C35.3265119,30.6991599 36.806445,27.0576249 37.1025149,23.2757587 C37.1408249,22.7889714 37.1599799,22.3005185 37.1599799,21.8120657 L37.1599799,0.26433921 L8.32826748e-05,0.26433921 Z" id="Fill-25" fill="#000000" mask="url(#mask-6)"></path>
                </g>
                <path d="M24.9742255,24.8205274 L23.3726997,24.8205274 L23.3726997,28.0177492 L26.5699216,28.0177492 L26.5699216,26.360424 C25.7066967,26.360424 25.0054565,25.6758404 24.9742255,24.8205274" id="Fill-28" fill="#000000"></path>
                <path d="M12.2154447,24.8205274 L10.6139188,24.8205274 L10.6139188,28.0177492 L13.8111407,28.0177492 L13.8111407,26.360424 C12.9479158,26.360424 12.2466757,25.6758404 12.2154447,24.8205274" id="Fill-30" fill="#000000"></path>
                <path d="M8.89879544,18.4098435 C8.89879544,17.1343693 9.6916465,15.9609164 10.8659322,15.4687158 C12.1676404,14.9232143 13.7083699,15.3054818 14.6115705,16.3873237 C15.5339261,17.6394787 17.0263517,18.3948526 18.5812392,18.3948526 C20.1452878,18.3948526 21.6427103,17.6319833 22.5642331,16.3685851 C23.4815918,15.2888252 25.031066,14.9190502 26.3352726,15.4866216 C27.487072,15.9883997 28.2595188,17.1481109 28.2616009,18.4065122 L28.2616009,18.4098435 L28.2616009,20.0117857 L28.2616009,20.0542599 L28.2624337,20.0542599 C28.2728441,20.8579377 28.5839049,21.5849954 29.0827681,22.1417401 L29.0482058,22.1763024 C28.5172787,21.8186033 27.8801663,21.6078982 27.1922514,21.6078982 L22.7432909,21.6078982 C21.8717377,21.6078982 21.079303,21.9426945 20.485914,22.4906945 L20.4850812,22.4894453 L20.4850812,22.4869468 C20.0274429,21.9460258 19.3445249,21.6012356 18.5816556,21.6012356 L18.5804064,21.6012356 C17.8504337,21.5999863 17.1458623,21.931035 16.6748988,22.4869468 L16.6757316,22.4890289 L16.674066,22.4906945 C16.0810933,21.9426945 15.2882422,21.6078982 14.4175219,21.6078982 L9.96772857,21.6078982 C9.28023009,21.6078982 8.64311763,21.8190198 8.11219058,22.1763024 L8.07804468,22.1425729 C8.58565258,21.5758343 8.89879544,20.8321201 8.89879544,20.0117857 L8.89879544,18.4098435 Z M28.857072,28.0248283 C28.857072,28.8751444 28.1674915,29.5638921 27.3175918,29.5638921 L22.7437073,29.5638921 C21.824683,29.5638921 21.0797195,28.819345 21.0797195,27.9003207 L21.0797195,24.9358739 C21.0797195,24.0168495 21.824683,23.271886 22.7437073,23.271886 L27.1930842,23.271886 C28.1121085,23.271886 28.857072,24.0168495 28.857072,24.9358739 L28.857072,28.0248283 Z M16.0810933,27.9003207 C16.0810933,28.819345 15.3361298,29.5638921 14.4175219,29.5638921 L9.84322097,29.5638921 C8.99332128,29.5638921 8.30374073,28.8751444 8.30374073,28.0248283 L8.30374073,24.9358739 C8.30374073,24.0168495 9.04870426,23.271886 9.96772857,23.271886 L14.4175219,23.271886 C15.3361298,23.271886 16.0810933,24.0168495 16.0810933,24.9358739 L16.0810933,27.9003207 Z M7.46966474,22.6759985 L7.50381064,22.7101444 C6.96996869,23.2997857 6.63975289,24.0776459 6.63975289,24.9358739 L6.63975289,28.0248283 C6.63975289,29.7941687 8.07429696,31.2278799 9.84322097,31.2278799 L14.4175219,31.2278799 C16.2551541,31.2278799 17.7446647,29.7379529 17.7446647,27.9003207 L17.7446647,25.8923754 L17.7496617,25.8923754 L17.7496617,24.9354574 L17.7496617,24.9358739 L17.7496617,24.9312933 L17.7496617,24.1259498 C17.7496617,23.0145426 19.4107347,23.0145426 19.4107347,24.1259498 L19.4107347,24.9287948 L19.4103182,24.9358739 L19.4107347,24.9354574 L19.4107347,25.8923754 L19.4153152,25.8923754 L19.4153152,27.9003207 C19.4153152,29.7379529 20.9052422,31.2278799 22.7432909,31.2278799 L27.316759,31.2278799 C29.0860994,31.2278799 30.5202271,29.7941687 30.5202271,28.0248283 L30.5202271,24.9358739 C30.5202271,24.0780623 30.1904277,23.301035 29.6574185,22.7113936 L29.6923973,22.6759985 C30.2000052,23.0153754 30.8083851,23.2152538 31.4646526,23.2152538 L31.4975492,23.2152538 L31.4975492,20.0542599 L31.4975492,20.0117857 L31.4975492,18.4098435 C31.4975492,18.1062781 31.4858897,17.8052112 31.4646526,17.5066429 L31.4646526,12.0024909 L31.4300903,12.0024909 L28.2041359,12.0024909 L28.2041359,8.81068237 L25.0231541,8.81068237 L25.0231541,7.30035106 C25.0194064,7.298269 25.0160751,7.29618693 25.0119109,7.29410486 L25.0119109,5.59472188 L18.6049748,5.59472188 L18.6049748,5.5951383 C15.9557529,5.58014742 13.3227711,6.4079772 11.1520082,7.9241383 C9.02913283,9.40698632 7.37305684,11.526114 6.46485927,13.9525547 C5.93351581,15.3754392 5.66284711,16.8911839 5.66284711,18.4098435 L5.66284711,20.0117857 L5.66284711,23.2152538 L5.69491094,23.2152538 C6.35242766,23.2152538 6.96205684,23.0157918 7.46966474,22.6759985 L7.46966474,22.6759985 Z" id="Fill-32" fill="#000000"></path>
            </g>
        </g>
    </g>
</svg>