<?xml version="1.0" encoding="utf-8"?>
<!-- Generator: Adobe Illustrator 18.1.0, SVG Export Plug-In . SVG Version: 6.00 Build 0)  -->
<!DOCTYPE svg PUBLIC "-//W3C//DTD SVG 1.1//EN" "http://www.w3.org/Graphics/SVG/1.1/DTD/svg11.dtd">
<svg version="1.1" id="Layer_1" xmlns="http://www.w3.org/2000/svg" xmlns:xlink="http://www.w3.org/1999/xlink" x="0px" y="0px"
	 width="190px" height="32px" viewBox="0 0 190 32" enable-background="new 0 0 190 32" xml:space="preserve">
<path fill="#FF0000" d="M129.1,3.6c0,0,5.7,0.3,3.9,4.6c-1.4,3.4-6.1-2.8-7.6,3.3c-0.2,0.7-0.2,4.6-0.1,8.1
	c-0.1,1.6,1.4,4.9,4.3,2.9c0,0,0-2.4,0-4.3c-4.3,0-3.6-5.4,0-5.4c2.6,0,1.7-0.1,3.3,0c0,0,2.4,0.3,2.3,5.2c0,0,0,3.6-0.1,6.3
	c-0.3,1.4-1.1,3-5.1,3.8c-3.9,0.7-6.9-1.4-7.5-2c-0.6-0.6-2.4-2.3-2.7-5.7c-0.2-3.4-0.3-7.2,0-10.2c0.4-3,2.5-4.7,4.8-5.8
	C126.9,3.2,129.1,3.6,129.1,3.6"/>
<path fill="#FF0000" d="M142.1,22.4v-4.6h3.4c0,0-1.4,0,0,0c3.7,0,4-5,0.1-5.2h-3.5V9.1h3.8c0,0-1.4,0,0,0c3.7,0,3.9-5.2,0-5.4
	c-0.9,0,0,0,0,0h-6.8c-2.3,0.1-3.1,1.2-3.1,5.4c0,3,0,0,0,0v13.3c0,4.1,0.8,5.2,3.2,5.3h6.8c0,0-0.9,0,0,0c3.9-0.2,3.7-5.3,0-5.3
	C144.6,22.4,143.6,22.4,142.1,22.4"/>
<path fill="#FF0000" d="M48.4,22.4v-4.6h3.4c0,0-1.4,0,0,0c3.7,0,4-5,0.1-5.2h-3.5V9.1h3.8c0,0-1.4,0,0,0c3.7,0,3.9-5.2,0-5.3
	c-0.9,0,0,0,0,0h-6.8c-2.3,0.1-3.1,1.2-3.1,5.3c0,3,0,0,0,0v13.3c0,4.1,0.8,5.2,3.2,5.3h6.8c0,0-0.9,0,0,0c3.9-0.2,3.7-5.3,0-5.3
	C50.9,22.4,49.9,22.4,48.4,22.4"/>
<path fill="#FF0000" d="M166.8,27.2l-5.7-9.8c2.3-1.7,3.8-3.5,3.7-6.4c0-3.9-3.3-7.1-7.1-7.1c-1.9,0-4.8-0.1-4.8,0
	c-1.6,0-2.7,1.3-2.7,2.9v18c0,1.6,1.1,3,2.7,3c1.6,0,2.8-1.3,2.8-3l0-6.3l6.3,11.3c0.8,1.4,2.6,2,3.9,1.3
	C167.2,30.3,167.6,28.6,166.8,27.2z M157,13.6h-1.3v-5h1.3c1.4,0,2.6,1.1,2.6,2.5C159.6,12.5,158.4,13.6,157,13.6z"/>
<path fill="#FF0000" d="M118.9,23.7l-3.7-6.3c2.3-1.7,3.8-3.5,3.7-6.4c0-3.9-3.3-7.2-7.1-7.2c-1.9,0-4.6,0-4.6,0v0
	c-1.6,0-2.6,1.3-2.6,3v18c0,1.6,1.2,3,2.8,3c1.6,0,2.7-1.3,2.7-3l-0.1-5.3l4.1,6.8c0.8,1.4,2.6,2,3.9,1.3
	C119.4,26.8,119.8,25.1,118.9,23.7z M111.3,13.5H110V8.6h1.4c1.4,0,2.6,1.1,2.6,2.5C113.9,12.4,112.7,13.5,111.3,13.5z"/>
<path fill="#FF0000" d="M82.7,15.1c2-1.7,2.7-3.7,2.1-6.2c-0.7-3.1-3.2-5-6.4-5h-4.3l-0.1,0c-1.5,0-2.8,1.3-2.8,3v18
	c0,1.6,1.2,3,2.8,3c2.8,0,3.7,0,5.2,0c2.7,0,7.3-2.3,7.3-6.8C86.5,18.3,85.2,16.3,82.7,15.1z M76.7,8.4h1.1c1.3,0,2.3,0.9,2.3,2.1
	c0,1.2-1,2.2-2.3,2.2h-1.1V8.4z M78,23.2h-1.4v-5.2H78c1.5,0,2.7,1.2,2.7,2.6C80.7,22.1,79.5,23.2,78,23.2z"/>
<path fill="#FF0000" d="M40.7,24.9c0,4-5.9,3.7-5.9,0.2c0-5.7,0-4.9,0-9h-4V25c0,4-5.9,3.7-5.9,0.2c0-5.7,0-13.8,0-22.8v0.3
	c0-3.5,5.9-3.8,5.9,0.2l0,7.9h4c0-4.1,0-2.4,0-8.1c0-3.5,5.9-3.7,5.9,0.2C40.7,7.3,40.7,20.7,40.7,24.9"/>
<path fill="#FF0000" d="M69.1,6.8c-1-1.5-1.9-2-3.5-2.7c-0.9-0.4-3.6-0.6-5.6,0.2c-1.8,0.8-2.8,1.6-3.6,3.4c-1,2.2-1,4.1,0.4,6.1
	c1.3,1.9,2.9,2.8,4.7,3.5c3.1,1.3,4.2,3.2,3.6,4.4c-0.4,0.8-1,1.5-2.2,1.4c-1.7,0-2.3-1.1-2.9-2.5c-0.4-1-1.7-1.7-3.3-1.1
	c-2,0.8-1.9,3-1.1,4.3c1.7,2.9,3.9,4,7.3,4c2.8,0,4.7-1.1,6.4-3.3c2.1-2.8,1.8-6.5-0.5-9c-1.4-1.6-2.8-2-4.8-2.9
	c-2.4-1.1-3-2.4-2.2-3.4c1-1.1,2.7-0.3,3.8,0.7c0.8,0.7,2.2,0.6,3.1-0.2C69.4,9.1,69.7,7.6,69.1,6.8"/>
<g>
	<path fill="#FF0000" d="M103,20.2c0,4.3-3.5,7.7-7.9,7.7c-4.4,0-7.9-3.5-7.9-7.7l0-13.5c0-1.6,1.3-3,2.9-3c1.6,0,2.9,1.3,2.9,3
		v13.9c0,1.2,1,2.2,2.2,2.2c1.2,0,2.2-0.9,2.2-2.1v-14c0-1.6,1.3-3,2.9-3c1.6,0,2.9,1.3,2.9,3L103,20.2L103,20.2"/>
	<polyline fill="#066AA5" points="9.9,5.9 9.8,5.9 7.6,12.1 0,12.1 0,12.1 6.2,16.1 3.8,22.4 3.8,22.4 9.9,18.5 15.9,22.4 16,22.4 
		13.6,16.1 19.7,12.1 19.7,12.1 12.1,12.1 9.9,5.9 	"/>
</g>
<polyline fill="#066AA5" points="180.3,5.9 180.2,5.9 177.9,12.1 170.4,12.1 170.4,12.1 176.5,16.1 174.1,22.4 174.2,22.4 
	180.2,18.5 186.3,22.4 186.3,22.4 184,16.1 190.1,12.1 190.1,12.1 182.5,12.1 180.3,5.9 "/>
<ellipse fill="none" stroke="#FF0000" stroke-width="2.1416" stroke-miterlimit="3.864" cx="166.7" cy="4.9" rx="1.4" ry="1.4"/>
<path fill="#FF0000" d="M166.3,4.9V4.3h0.3c0.3,0,0.5,0.1,0.5,0.3c0,0.2-0.1,0.3-0.4,0.3H166.3 M167,5.1c0.3,0,0.5-0.2,0.5-0.6
	c0-0.5-0.4-0.6-0.8-0.6h-0.7v1.9h0.4V5.2h0.3l0.5,0.7h0.5L167,5.1z"/>
</svg>
