<?xml version="1.0" encoding="UTF-8"?>
<svg width="182px" height="40px" viewBox="0 0 182 40" version="1.1" xmlns="http://www.w3.org/2000/svg" xmlns:xlink="http://www.w3.org/1999/xlink">
    <title>Group 20</title>
    <defs>
        <polygon id="path-1" points="0 0.0058018018 181.906796 0.0058018018 181.906796 39.6396396 0 39.6396396"></polygon>
    </defs>
    <g id="Page-1" stroke="none" stroke-width="1" fill="none" fill-rule="evenodd">
        <g id="Artboard" transform="translate(-197.000000, -229.000000)">
            <g id="Group-20" transform="translate(197.000000, 229.000000)">
                <g id="Group-3">
                    <mask id="mask-2" fill="white">
                        <use xlink:href="#path-1"></use>
                    </mask>
                    <g id="Clip-2"></g>
                </g>
                <path d="M55.2897239,20.3887102 L53.3896623,14.0066236 L50.5199601,20.3887102 L55.2897239,20.3887102 Z M47.844256,7 L59.9047094,7 C60.9121692,9.92024656 61.9210297,12.8004272 62.9284896,15.6394874 C64.2472569,19.3385601 65.3328063,22.2190922 66.108799,24.3197437 C66.4194062,25.0581524 66.6900932,25.8376815 67,26.5757387 L66.7296632,33 L58.8576795,33 C58.6251618,32.02471 58.3145546,31.014626 57.9650778,29.9641245 C57.5000424,28.6394874 57.190836,27.6663062 56.9572678,27.003109 L47.6898279,27.003109 L45.0522931,33 L34,33 C36.3283283,29.0689664 38.6923746,24.78718 41.1744307,20.1159804 C43.4239691,15.9519317 45.6335873,11.5534618 47.844256,7 L47.844256,7 Z" id="Fill-4" fill="#183B7E"></path>
                <path d="M167.023517,20.3887102 L165.143916,14.0066236 L162.310163,20.3887102 L167.023517,20.3887102 Z M159.66973,7 L171.578133,7 C172.572403,9.92024656 173.571859,12.8004272 174.565091,15.6394874 C175.870263,19.3385601 176.939232,22.2190922 177.705943,24.3197437 C178.818141,27.2396388 179.926189,30.1194679 181,33 L170.544094,33 C170.312386,32.02471 170.010128,31.014626 169.664295,29.9641245 C169.203992,28.6394874 168.897584,27.6663062 168.670026,27.003109 L159.510647,27.003109 L156.909985,33 L146,33 C148.2946,29.0689664 150.628971,24.78718 153.081962,20.1159804 C155.302208,15.9519317 157.483721,11.5534618 159.66973,7 L159.66973,7 Z" id="Fill-6" fill="#183B7E"></path>
                <path d="M113.25862,7 L126.078752,7 C126.234894,7.89479447 126.585424,10.1518134 127.167886,13.8100677 C127.674207,16.8079455 127.980175,19.1029211 128.136317,20.7758283 C128.677726,18.5978859 129.420541,15.7145812 130.429674,12.1364576 C131.286876,9.21871072 131.748986,7.50749537 131.868987,7 L145,7 C145,9.80247097 144.919999,12.6843699 144.804559,15.6000081 C144.654733,18.5599292 144.494381,21.6333689 144.378239,24.8621501 C144.22315,28.0933914 144.147009,30.8181916 144.147009,33 L135.521657,33 C135.521657,31.1696427 135.597447,29.0686681 135.712887,26.7719353 C136.023767,21.2038957 136.18447,17.7403452 136.18447,16.3387583 L131.478457,33 L122.973106,33 L120.248166,16.3387583 C119.976584,18.9869422 119.746055,21.7915219 119.510263,24.787291 C119.319735,27.7823572 119.203944,30.5064545 119.203944,33 L111,33 C111.351933,30.1191554 111.698253,27.1585315 112.054397,24.1233999 C112.441068,21.0879168 112.711597,18.1680612 112.942476,15.327985 C113.142829,12.4886116 113.25862,9.72409738 113.25862,7" id="Fill-8" fill="#183B7E"></path>
                <path d="M97.2395739,7 L108,7 C107.235963,15.754998 106.838418,24.3971803 106.838418,33 L97.3218993,33 L96,31.8282621 C96.0415237,29.687222 96.1209605,27.3149272 96.3256906,24.6685005 C96.5217548,21.5553468 96.7228742,18.3258627 96.9239935,14.9782911 C97.1615815,11.6314224 97.2395739,8.98534719 97.2395739,7" id="Fill-10" fill="#183B7E"></path>
                <path d="M3.25307546,7 L16.07571,7 C16.2304533,7.89479447 16.5809941,10.1518134 17.1634742,13.8100677 C17.6691091,16.8079455 17.9803501,19.1029211 18.136146,20.7758283 C18.6786245,18.5978859 19.4169006,15.7145812 20.4278195,12.1364576 C21.2829425,9.21871072 21.7489267,7.50749537 21.8654227,7 L35,7 C35,9.80247097 34.9210494,12.6843699 34.8052551,15.6000081 C34.6505119,18.5599292 34.494716,21.6333689 34.3771673,24.8621501 C34.2220732,28.0933914 34.1434734,30.8181916 34.1434734,33 L25.5171524,33 C25.5171524,31.1696427 25.5957521,29.0686681 25.7136518,26.7719353 C26.0234891,21.2038957 26.1778814,17.7403452 26.1778814,16.3387583 L21.4762839,33 L12.9678625,33 L10.2484519,16.3387583 C9.97580911,18.9869422 9.74106258,21.7915219 9.50912318,24.787291 C9.3143783,27.7823572 9.19963672,30.5064545 9.19963672,33 L1,33 C1.34843544,30.1191554 1.69792355,27.1585315 2.04881522,24.1233999 C2.4376032,21.0879168 2.71024604,18.1680612 2.94113276,15.327985 C3.13728121,12.4886116 3.25307546,9.72409738 3.25307546,7" id="Fill-12" fill="#183B7E"></path>
                <path d="M94,1.84109762 C93.9985874,2.86388817 93.9231709,3.93070984 93.8070646,4.99193433 C93.652373,6.09383163 93.577658,6.83191251 93.5376697,7.28229857 C93.1928584,9.14056087 91.9742678,11.0521829 89.9569638,13 L70.0740134,12.9753724 C70.0452499,12.7988748 70.0178895,12.6227504 70,12.4466259 C70.1950306,11.9585522 70.3097339,11.6727231 70.3097339,11.464135 L70.1171587,10.5678406 L77.0670536,3.08777519 L82.5307171,12.7115589 L93.0479886,0.413071558 C93.2426684,0.163437527 93.4243696,0 93.5453868,0 C93.8470528,0.000373145039 94.0013936,0.615316169 94,1.84109762" id="Fill-14" fill="#F4AB00"></path>
                <path d="M88.7247421,24.1943441 C89.0801187,24.8317407 89.4291366,25.4333852 89.7672036,26 L70.6227921,25.9772487 L74.0783524,21.6819546 C73.1959163,20.6487583 72.385898,19.5455025 71.7327257,18.351964 C71.2293345,17.3602978 70.8453441,16.369715 70.5768687,15.4195789 C70.3249965,14.6344797 70.125053,13.82049 70,13 L90,13.0238347 C89.7477745,13.2592922 89.4835382,13.5016112 89.2016391,13.7374299 C87.460082,15.2036224 86.2236824,16.4701095 85.4585276,17.5372521 C85.6881447,18.1338408 85.9174085,18.6058392 86.0661297,18.9597478 C87.1089445,21.1781766 87.9910273,22.9260514 88.7247421,24.1943441" id="Fill-16" fill="#186232"></path>
                <path d="M94.5005109,37.5377056 C94.4998118,37.6631653 94.5795063,38.1692118 94.6920574,39 C92.0918477,38.9965575 89.7677726,38.4132462 87.7834481,37.3181511 C86.4870133,36.6036426 84.5365939,35.0893283 81.8318724,32.8245506 C80.6451925,31.685468 79.6560013,30.6408627 78.8894655,29.7152146 C78.0942676,28.7968341 77.2931276,27.6217966 76.4140407,26.2333245 L69,32.9327978 L69.1985373,27.8975785 L70.629544,26 L89.5916057,26.0240974 C90.250484,27.1880425 90.8866423,28.2142878 91.4951871,29.1005384 C92.4480265,30.4465531 93.6305119,31.91535 95,33.5096066 L94.1275543,34.513667 C93.8954614,34.4754171 93.7011185,34.4321947 93.5476715,34.4314297 C93.1998817,34.4314297 92.904872,34.6383617 92.6717305,35.0610233 C92.5175844,35.3563127 92.6706819,35.7307794 93.0911755,36.1936034 C93.2788772,36.3611381 93.738519,36.7807397 94.5005109,37.3694059 L94.5005109,37.5377056 Z" id="Fill-18" fill="#C10C12"></path>
            </g>
        </g>
    </g>
</svg>